# xmcd
#
# Track frame offsets:
# 150
# 16056
# 24188
# 34492
# 51142
# 63196
# 76328
# 87116
# 97460
# 110162
#
# Disc length: 1672 seconds
#
#
# Revision: 2
# Processed by: cddbd v1.5.1PL2 Copyright (c) Steve Scherf et al.
# Submitted via: FreeRIP 2.945 
#
DISCID=7906860a
DTITLE=Various Artist - #1 Country [CD 1)
DYEAR=2003
DGENRE=Classic Country
TTITLE0=Johnny Lee - Lookin' For Love
TTITLE1=Don Gibson - Blue Blue Day
TTITLE2=Faron Young - Hello Walls
TTITLE3=Ray Price - You're The Best Thing That Ever Happened To Me
TTITLE4=Donna Fargo - Funny Face
TTITLE5=Bobby Helms - My Special Angel
TTITLE6=Ferlin Husky - Gone
TTITLE7=Connie Smith - Once A Day
TTITLE8=David Houston - My Elusive Dreams
TTITLE9=Cal Smith - Country Bumpkin
EXTD=K-Tel 
EXTT0=
EXTT1=
EXTT2=
EXTT3=
EXTT4=
EXTT5=
EXTT6=
EXTT7=
EXTT8=
EXTT9=
PLAYORDER=
